<svg xmlns="http://www.w3.org/2000/svg" width="1200" height="800" viewBox="0 0 1200 800">
  <defs>
    <linearGradient id="g" x1="0" x2="1">
      <stop offset="0" stop-color="#3b82f6" />
      <stop offset="1" stop-color="#60a5fa" />
    </linearGradient>
    <filter id="blur" x="-20%" y="-20%" width="140%" height="140%">
      <feGaussianBlur stdDeviation="1.2" />
    </filter>
  </defs>
  <rect width="1200" height="800" rx="24" fill="url(#g)" />
  <g transform="translate(120,120)">
    <rect width="960" height="560" rx="16" fill="rgba(255,255,255,0.06)" />
    <g transform="translate(40,40)">
      <!-- Bell icon simplified -->
      <g transform="translate(60,40) scale(6)" fill="#fff" opacity="0.95">
        <path d="M6 2a4 4 0 0 0-4 4v2.09c0 .26-.1.51-.29.7L1 10h10l-0.71-1.21A1 1 0 0 1 9 8.09V6a4 4 0 0 0-4-4zM5 12a2 2 0 0 0 4 0H5z" />
      </g>
      <text x="220" y="120" font-family="Inter, Arial, sans-serif" font-size="48" fill="#ffffff">Visit Alerts</text>
      <text x="220" y="170" font-family="Inter, Arial, sans-serif" font-size="22" fill="#e6f0ff">Notificaciones por email — Formspree • JavaScript</text>
    </g>
  </g>
</svg>
